<svg xmlns="http://www.w3.org/2000/svg" xmlns:xlink="http://www.w3.org/1999/xlink" width="200" zoomAndPan="magnify" viewBox="0 0 150 149.999998" height="200" preserveAspectRatio="xMidYMid meet" version="1.0"><defs><clipPath id="bb09514fe4"><path d="M 0.210938 0.210938 L 148 0.210938 L 148 148 L 0.210938 148 Z M 0.210938 0.210938 " clip-rule="nonzero"/></clipPath><clipPath id="69e09c52ff"><rect x="0" width="148" y="0" height="148"/></clipPath></defs><g transform="matrix(1, 0, 0, 1, 2, 2)"><g clip-path="url(#69e09c52ff)"><g clip-path="url(#bb09514fe4)"><path fill="#ffffff" d="M 0.210938 0.210938 L 148 0.210938 L 148 148 L 0.210938 148 Z M 0.210938 0.210938 " fill-opacity="1" fill-rule="nonzero"/></g><path stroke-linecap="butt" transform="matrix(5.911573, 0, 0, 5.911573, 0.21067, 0.210671)" fill-opacity="1" fill="#ffffff" fill-rule="nonzero" stroke-linejoin="miter" d="M 2.000227 2.499776 L 8.999871 2.499776 M 11.999812 2.499776 L 14.999754 2.499776 M 16.000175 2.499776 L 22.999819 2.499776 M 2.000227 3.500197 L 2.999987 3.500197 M 8.00011 3.500197 L 8.999871 3.500197 M 11.999812 3.500197 L 13.999994 3.500197 M 16.000175 3.500197 L 16.999935 3.500197 M 22.000059 3.500197 L 22.999819 3.500197 M 2.000227 4.499958 L 2.999987 4.499958 M 3.999747 4.499958 L 6.999689 4.499958 M 8.00011 4.499958 L 8.999871 4.499958 M 10.000292 4.499958 L 13.000233 4.499958 M 13.999994 4.499958 L 14.999754 4.499958 M 16.000175 4.499958 L 16.999935 4.499958 M 17.999696 4.499958 L 21.000298 4.499958 M 22.000059 4.499958 L 22.999819 4.499958 M 2.000227 5.499718 L 2.999987 5.499718 M 3.999747 5.499718 L 6.999689 5.499718 M 8.00011 5.499718 L 8.999871 5.499718 M 10.000292 5.499718 L 11.000052 5.499718 M 16.000175 5.499718 L 16.999935 5.499718 M 17.999696 5.499718 L 21.000298 5.499718 M 22.000059 5.499718 L 22.999819 5.499718 M 2.000227 6.500139 L 2.999987 6.500139 M 3.999747 6.500139 L 6.999689 6.500139 M 8.00011 6.500139 L 8.999871 6.500139 M 10.000292 6.500139 L 11.000052 6.500139 M 13.999994 6.500139 L 14.999754 6.500139 M 16.000175 6.500139 L 16.999935 6.500139 M 17.999696 6.500139 L 21.000298 6.500139 M 22.000059 6.500139 L 22.999819 6.500139 M 2.000227 7.4999 L 2.999987 7.4999 M 8.00011 7.4999 L 8.999871 7.4999 M 10.000292 7.4999 L 11.999812 7.4999 M 13.999994 7.4999 L 14.999754 7.4999 M 16.000175 7.4999 L 16.999935 7.4999 M 22.000059 7.4999 L 22.999819 7.4999 M 2.000227 8.500321 L 8.999871 8.500321 M 10.000292 8.500321 L 11.000052 8.500321 M 11.999812 8.500321 L 13.000233 8.500321 M 13.999994 8.500321 L 14.999754 8.500321 M 16.000175 8.500321 L 22.999819 8.500321 M 10.000292 9.500081 L 11.000052 9.500081 M 11.999812 9.500081 L 14.999754 9.500081 M 2.000227 10.499841 L 2.999987 10.499841 M 3.999747 10.499841 L 8.999871 10.499841 M 13.000233 10.499841 L 13.999994 10.499841 M 16.000175 10.499841 L 21.000298 10.499841 M 5.000168 11.500262 L 5.999929 11.500262 M 6.999689 11.500262 L 8.00011 11.500262 M 8.999871 11.500262 L 11.000052 11.500262 M 14.999754 11.500262 L 19.000117 11.500262 M 19.999877 11.500262 L 22.999819 11.500262 M 2.999987 12.500023 L 3.999747 12.500023 M 5.000168 12.500023 L 5.999929 12.500023 M 6.999689 12.500023 L 8.999871 12.500023 M 11.000052 12.500023 L 11.999812 12.500023 M 13.000233 12.500023 L 14.999754 12.500023 M 19.000117 12.500023 L 19.999877 12.500023 M 21.000298 12.500023 L 22.000059 12.500023 M 2.999987 13.499783 L 5.000168 13.499783 M 6.999689 13.499783 L 8.00011 13.499783 M 10.000292 13.499783 L 11.000052 13.499783 M 13.000233 13.499783 L 13.999994 13.499783 M 14.999754 13.499783 L 16.000175 13.499783 M 19.000117 13.499783 L 22.000059 13.499783 M 2.000227 14.500204 L 3.999747 14.500204 M 5.000168 14.500204 L 6.999689 14.500204 M 8.00011 14.500204 L 8.999871 14.500204 M 11.000052 14.500204 L 13.999994 14.500204 M 16.000175 14.500204 L 16.999935 14.500204 M 21.000298 14.500204 L 22.000059 14.500204 M 10.000292 15.499964 L 11.000052 15.499964 M 14.999754 15.499964 L 22.999819 15.499964 M 2.000227 16.499725 L 8.999871 16.499725 M 13.000233 16.499725 L 14.999754 16.499725 M 19.000117 16.499725 L 22.000059 16.499725 M 2.000227 17.500146 L 2.999987 17.500146 M 8.00011 17.500146 L 8.999871 17.500146 M 10.000292 17.500146 L 11.999812 17.500146 M 13.000233 17.500146 L 13.999994 17.500146 M 14.999754 17.500146 L 16.000175 17.500146 M 16.999935 17.500146 L 17.999696 17.500146 M 19.000117 17.500146 L 21.000298 17.500146 M 22.000059 17.500146 L 22.999819 17.500146 M 2.000227 18.499906 L 2.999987 18.499906 M 3.999747 18.499906 L 6.999689 18.499906 M 8.00011 18.499906 L 8.999871 18.499906 M 10.000292 18.499906 L 11.000052 18.499906 M 13.999994 18.499906 L 14.999754 18.499906 M 16.000175 18.499906 L 17.999696 18.499906 M 21.000298 18.499906 L 22.999819 18.499906 M 2.000227 19.500327 L 2.999987 19.500327 M 3.999747 19.500327 L 6.999689 19.500327 M 8.00011 19.500327 L 8.999871 19.500327 M 10.000292 19.500327 L 11.999812 19.500327 M 14.999754 19.500327 L 16.999935 19.500327 M 17.999696 19.500327 L 19.000117 19.500327 M 19.999877 19.500327 L 21.000298 19.500327 M 2.000227 20.500088 L 2.999987 20.500088 M 3.999747 20.500088 L 6.999689 20.500088 M 8.00011 20.500088 L 8.999871 20.500088 M 10.000292 20.500088 L 11.000052 20.500088 M 11.999812 20.500088 L 16.999935 20.500088 M 19.000117 20.500088 L 21.000298 20.500088 M 2.000227 21.499848 L 2.999987 21.499848 M 8.00011 21.499848 L 8.999871 21.499848 M 11.999812 21.499848 L 13.000233 21.499848 M 16.999935 21.499848 L 17.999696 21.499848 M 19.000117 21.499848 L 21.000298 21.499848 M 2.000227 22.500269 L 8.999871 22.500269 M 10.000292 22.500269 L 13.999994 22.500269 M 16.000175 22.500269 L 17.999696 22.500269 M 19.000117 22.500269 L 19.999877 22.500269 M 21.000298 22.500269 L 22.000059 22.500269 " stroke="#000000" stroke-width="1" stroke-opacity="1" stroke-miterlimit="4"/></g></g></svg>